# xmcd
#
# Track frame offsets: 
#        150
#        11314
#        31094
#        55558
#        80665
#        96335
#        112198
#        131743
#        149048
#        161503
#        193353
#        231651
#
# Disc length: 3283 seconds
#
# Revision: 0
# Processed by: cddbd v1.5.2PL0 Copyright (c) Steve Scherf et al.
# Submitted via: ExactAudioCopy v0.99pb4
#
DISCID=ab0cd10c
DTITLE=Gwyn Ashton - Two Man Blues Army
DYEAR=2009
DGENRE=Blues
TTITLE0=Meltdown At The Hoo
TTITLE1=Break
TTITLE2=Million Dollar Blues
TTITLE3=Cross Road Blues
TTITLE4=Mad Dog
TTITLE5=All Over Now
TTITLE6=Outside Woman Blues
TTITLE7=Junior Got A Blade
TTITLE8=False Accusations
TTITLE9=Ain't Nobody's Fool
TTITLE10=One Way Ticket To The Blues
TTITLE11=Million Dollar Blues (radio edit)
EXTD=
EXTT0=
EXTT1=
EXTT2=
EXTT3=
EXTT4=
EXTT5=
EXTT6=
EXTT7=
EXTT8=
EXTT9=
EXTT10=
EXTT11=
PLAYORDER=
